<svg viewBox="0 0 65.008 59.998" xmlns="http://www.w3.org/2000/svg"><g transform="matrix(.81902 0 0 .81332 -28.928 -.093)" style="stroke-width:1.17057"><circle style="fill:none;stroke-width:1.48329" cx="-39.546" cy="-73.689" transform="scale(-1 1) rotate(-88.038)" r="33.835"/><circle style="fill:none;stroke-width:1.90357" cy="-74.252" cx="38.48" transform="rotate(88.864)" r="26.5"/><circle style="fill:#f8e274;fill-opacity:1;stroke:none;stroke-width:2.34113;stroke-linecap:round;stroke-opacity:1" cx="75" cy="37" r="36.625"/><path style="fill:#e9afaf;fill-opacity:1;stroke:none;stroke-width:2.34113;stroke-linecap:round;stroke-opacity:1" d="m36.81 29.08 1.55 7.91-1.41 7.91 14.76.05-1.06-5.09.3-6.67.1-4.11z"/><path style="font-weight:700;font-size:10px;font-family:Asap;-inkscape-font-specification:'Asap, Bold';text-align:center;letter-spacing:.4px;text-anchor:middle;fill:#112b3a" d="M52.42 23.09q-.35.49-.61.3l-5.16-3.6q-.17-.13-.2-.25-.02-.14.1-.32l1.2-1.72q.54-.77 1.33-1.1.79-.32 1.83.41.72.5.89 1.13.15.62-.01 1.14-.16.53-.39.86l-.6.86 1.9 1.33q.25.19-.09.68zm-2.2-3.77q.2-.3.2-.61-.01-.32-.41-.6-.4-.29-.7-.18-.32.09-.52.38l-.51.73 1.43 1zm7.78-2.54q-1.19 1-2.42.82-1.23-.17-2.34-1.5-1.12-1.32-1.07-2.56.03-1.24 1.22-2.24 1.19-1 2.41-.82 1.23.17 2.34 1.5 1.12 1.32 1.08 2.57-.04 1.23-1.22 2.23zm-.84-1q.6-.52.55-1.23-.06-.7-.78-1.56-.71-.84-1.4-1.02-.68-.18-1.29.34-.61.51-.56 1.23.05.7.77 1.55.71.85 1.4 1.03.7.17 1.3-.35zm5.18-2.1q-.55.25-.68-.04l-2.64-5.73q-.08-.19-.04-.3.05-.14.24-.23l1.77-.81q2.26-1.04 3.05.67.23.5.12 1.02-.11.5-.52.91l.02.04q.2-.02.5.14.28.16.54.4l1.72 1.62q.1.1.12.15.04.09-.07.2-.12.11-.4.24l-.36.17q-.45.2-.62.05l-1.53-1.44q-.3-.23-.53-.27-.23-.04-.64.15l-.35.16 1.02 2.21q.13.3-.42.55zm0-4.5q.28-.14.39-.46.1-.32-.05-.65-.14-.32-.44-.4-.28-.1-.64.06l-.8.37.68 1.47zm7.3 1.89q-.6.12-.65-.2l-1.06-5.28-1.56.3q-.16.04-.25-.06-.1-.1-.14-.36l-.06-.3q-.05-.26 0-.4.04-.12.2-.16l4.63-.92q.16-.03.25.07.1.1.14.36l.06.3q.06.26.01.39-.04.13-.2.16l-1.56.31 1.06 5.29q.06.31-.53.43zm4.64-.57q-.6 0-.6-.33l.1-6.3q0-.2.1-.3.1-.1.31-.09l3.3.06q.15 0 .22.12t.06.38v.31q0 .26-.08.38-.07.12-.23.12l-2.15-.04-.02 1.46 2.08.03q.16 0 .22.13.07.12.07.38v.3q-.01.27-.08.39-.08.12-.24.11l-2.08-.03-.04 2.62q0 .32-.6.31zm7.63 1q-1.5-.4-2.06-1.51-.56-1.12-.1-2.79.44-1.67 1.49-2.34 1.04-.68 2.54-.27 1.5.4 2.04 1.51.56 1.1.1 2.78-.44 1.67-1.49 2.35-1.03.67-2.52.27zm.34-1.27q.77.21 1.32-.24.54-.45.83-1.52.3-1.08.05-1.73-.25-.67-1.02-.88-.77-.2-1.33.24-.54.45-.83 1.52-.3 1.07-.05 1.74.26.66 1.03.87zm4.55 3.01q-.18-.1-.22-.23-.03-.13.07-.31l3.07-5.5q.15-.29.68 0l.3.17q.52.3.36.57l-2.62 4.71 1.88 1.05q.14.08.15.22 0 .14-.13.37l-.15.27q-.12.22-.24.3-.12.07-.26-.01zm4.47 2.88q-.47-.37-.27-.63l3.97-5.03q.2-.25.67.12l.28.21q.47.38.26.64l-3.96 5.02q-.2.26-.68-.11Zm4.01 3.95q-1-1.2-.82-2.42.18-1.23 1.51-2.34 1.33-1.11 2.57-1.06 1.24.04 2.23 1.23 1 1.19.81 2.41-.17 1.23-1.5 2.34-1.33 1.1-2.57 1.07-1.24-.04-2.23-1.23zm1-.84q.52.61 1.23.55.7-.05 1.56-.77.85-.7 1.02-1.39.18-.68-.33-1.3-.51-.61-1.23-.56-.7.05-1.55.76-.85.71-1.03 1.4-.18.7.34 1.3z" transform="translate(.426)" aria-label="PORTFOLIO"/><path style="font-weight:700;font-size:10px;font-family:Asap;-inkscape-font-specification:'Asap, Bold';text-align:center;letter-spacing:2px;text-anchor:middle;fill:#112b3a" d="M46.7 55.69q-.13-.17-.12-.3.03-.14.2-.26l4.92-3.77q.17-.12.3-.1.14.01.26.18l1.3 1.7q.94 1.23.72 2.44-.22 1.2-1.56 2.23-1.34 1.02-2.57.92-1.21-.11-2.15-1.34zm2.34.9q.48.64 1.18.62.7 0 1.54-.66.85-.65 1.05-1.31.2-.67-.29-1.3l-.6-.8-3.48 2.67zm3.55 5.81q-.16-.13-.18-.26 0-.14.12-.3l3.88-4.83q.14-.17.26-.18.14-.02.3.11l2.74 2.2q.13.1.1.24-.01.14-.18.34l-.19.24q-.16.2-.3.25-.12.05-.25-.05l-1.84-1.48-.91 1.13 1.64 1.31q.12.1.1.24-.02.14-.18.34l-.2.24q-.16.2-.29.26-.13.05-.25-.05l-1.64-1.32-1.02 1.26 1.86 1.5q.12.1.1.23-.02.14-.18.34l-.2.24q-.16.2-.29.26-.13.05-.25-.05zm7.58 5.03q-.45-.2-.42-.43l.82-6.73.04-.18q.1-.2.65.06l.3.15q.45.21.4.51l-.64 4.5-.05.35.03.02.25-.27 3.12-3.3q.22-.22.66-.01l.28.13q.54.26.45.46l-.11.15-4.72 4.87q-.15.16-.6-.05zm6.1 2.3q-.2-.05-.29-.16-.06-.11-.02-.32l1.32-6.06q.04-.2.15-.27.12-.08.33-.03l3.43.74q.15.04.2.17.04.13-.02.39l-.06.3q-.06.25-.15.36-.1.1-.25.06l-2.32-.5-.3 1.42 2.04.44q.16.04.2.17.05.13 0 .39l-.07.3q-.06.25-.15.35-.1.1-.25.07l-2.06-.44-.34 1.58 2.32.5q.16.04.2.17.05.13 0 .39l-.07.3q-.06.25-.15.36-.1.1-.25.07zm7.37 1.1q-.21 0-.31-.09-.1-.1-.1-.31l.03-6.3q0-.32.6-.32h.34q.6 0 .6.32l-.02 5.4h2.16q.16 0 .23.12t.07.38v.31q0 .26-.07.38t-.23.12zm9.28-.85q-1.5.36-2.53-.34-1.02-.71-1.43-2.4-.4-1.68.2-2.77.58-1.1 2.09-1.46 1.5-.36 2.52.36 1.02.7 1.43 2.38.4 1.68-.19 2.78-.58 1.09-2.09 1.45zm-.3-1.28q.77-.18 1.04-.84.26-.66 0-1.74t-.79-1.54q-.53-.47-1.31-.28-.78.19-1.05.85-.27.65-.01 1.73t.8 1.54q.54.47 1.31.28zm6.84-1.05q-.53.28-.68 0l-2.94-5.57q-.1-.19-.07-.3.05-.14.23-.24l1.86-.98q.83-.44 1.68-.37.85.06 1.45 1.19.4.78.27 1.4-.15.63-.53 1.02-.38.4-.73.58l-.94.5 1.08 2.05q.15.28-.38.56zm-.23-4.36q.32-.16.45-.45.14-.29-.1-.72-.22-.44-.54-.48-.31-.06-.63.1l-.79.42.82 1.55zm6.66.37q-.16.14-.3.14-.13-.02-.26-.18l-4.05-4.7q-.14-.16-.13-.28.01-.14.17-.28l2.66-2.3q.12-.1.25-.05.14.04.3.24l.2.24q.18.2.2.33.03.14-.1.24l-1.79 1.55.95 1.1 1.59-1.37q.12-.1.25-.06.13.04.3.24l.2.23q.17.2.2.34.02.13-.1.24l-1.59 1.37 1.06 1.23 1.8-1.56q.12-.1.26-.06.13.05.3.25l.2.23q.17.2.2.33.02.14-.1.25zm5.43-5.3q-.35.49-.61.3l-5.1-3.71q-.16-.12-.18-.25-.02-.14.1-.3l1.15-1.58q1.47-2.02 2.99-.91.45.33.6.84.15.49 0 1.04l.02.03q.17-.12.5-.12.34 0 .67.08l2.3.58.18.07q.07.06.03.21-.05.15-.22.4l-.24.33q-.3.4-.51.34l-2.05-.5q-.36-.07-.59.02-.22.07-.49.43l-.23.32 1.98 1.44q.25.18-.1.67zm-2.19-3.93q.18-.25.12-.59-.07-.33-.36-.54-.28-.2-.58-.14-.3.06-.53.37l-.52.71 1.31.96z" transform="translate(-.198)" aria-label="DEVELOPER"/><path style="fill:none;stroke:#112b3a;stroke-width:2.34113;stroke-dasharray:none;stroke-opacity:1" d="M109.8 45a35.72 35.72 0 0 1-34.8 27.72 35.72 35.72 0 0 1-34.8-27.71m0-16.01a35.72 35.72 0 0 1 34.8-27.72 35.72 35.72 0 0 1 34.81 27.73"/><path style="fill:#e9afaf;fill-opacity:1;stroke:none;stroke-width:2.34113;stroke-linecap:round;stroke-opacity:1" d="m98.33 28.9 1.55 7.91-1.42 7.91 14.77.05-1.07-5.08.31-6.68.1-4.1z"/><circle style="fill:none;stroke:#112b3a;stroke-width:2.34113;stroke-dasharray:none;stroke-opacity:1" cx="75" cy="37" r="24.532"/><path style="fill:none;stroke:#112b3a;stroke-width:2.34113;stroke-linecap:round;stroke-dasharray:none;stroke-opacity:1" d="M104.1 44.99a30.18 30.18 0 0 1-2.05 5.38m.01-26.72a30.18 30.18 0 0 1 2.04 5.36m-58.2-.01a30.18 30.18 0 0 1 2.05-5.37m0 26.74a30.18 30.18 0 0 1-2.05-5.38"/><path style="opacity:1;fill:none;stroke:#112b3a;stroke-width:2.34113;stroke-linecap:round;stroke-opacity:1" d="M51.23 44.99h-14.5l1.55-7.99-1.54-7.99v0h14.5m46.95 0h15.07l-1.6 7.99 1.6 7.99h-14.91"/><path style="font-weight:700;font-size:18px;font-family:Asap;-inkscape-font-specification:'Asap, Bold';text-align:center;letter-spacing:.4px;text-anchor:middle;fill:#112b3a;stroke-width:2.34113;stroke-linecap:round" d="M60.33 42.85q-.89 0-1-.38l-2.84-11.55q-.03-.11-.03-.27 0-.47 1.11-.47h.47q1.08 0 1.2.56l1.36 5.8.36 1.63q.05.3.2.96.08-.56.23-1.16l.21-.8.08-.33.09-.3 1.47-5.98q.06-.22.29-.29.25-.09.7-.09h.69q.45 0 .68.09.25.07.3.29l1.43 5.97.61 2.72.36-1.58.25-1.14 1.4-5.8q.13-.55 1.21-.55h.2q1.12 0 1.12.47 0 .16-.04.27l-2.93 11.55q-.04.18-.33.3-.27.08-.66.08h-1.32q-.4 0-.68-.09-.27-.1-.3-.29l-1.48-6.22-.3-1.23-.3 1.23-1.53 6.22q-.03.18-.32.3-.27.08-.67.08zm14.56-.03q-.38 0-.56-.17-.16-.18-.16-.55v-11.16q0-.38.16-.54.18-.18.56-.18h6.32q.29 0 .41.21.13.22.13.69v.55q0 .47-.13.69-.12.21-.41.21h-4.27v2.61h3.78q.3 0 .42.22t.12.68v.56q0 .47-.12.69-.13.21-.42.21h-3.78v2.92h4.29q.29 0 .41.21.13.22.13.69v.56q0 .46-.13.68-.12.22-.41.22zm10.23 0q-.38 0-.56-.17-.16-.18-.16-.55v-11.16q0-.38.16-.54.18-.18.56-.18h3.56q2.2 0 3.23.84 1.02.85 1.02 2.34 0 .9-.56 1.66-.54.74-1.38 1.08l.02.07q1.06.22 1.74 1.06.69.85.69 1.9 0 1.76-1.14 2.71-1.11.94-3.36.94zm3.3-7.58q.79 0 1.22-.38.45-.38.45-.97 0-1.33-1.64-1.33h-1.28v2.68zm.52 5.22q.79 0 1.22-.38.43-.38.43-1.08 0-.7-.5-1.04-.5-.36-1.44-.36h-1.48v2.86z" aria-label="WEB"/><text xml:space="preserve" style="font-style:normal;font-variant:normal;font-weight:700;font-stretch:normal;font-size:8px;font-family:Asap;-inkscape-font-specification:'Asap, Bold';font-variant-ligatures:normal;font-variant-caps:normal;font-variant-numeric:normal;font-variant-east-asian:normal;text-align:center;letter-spacing:.302235px;writing-mode:lr-tb;direction:ltr;text-anchor:middle;fill:#112b3a;fill-opacity:1;stroke:none;stroke-width:2.34113;stroke-linecap:round" x="44.177" y="39.645"><tspan x="44.328" y="39.645" style="font-style:normal;font-variant:normal;font-weight:900;font-stretch:normal;font-size:6px;font-family:Montserrat;-inkscape-font-specification:'Montserrat, Heavy';font-variant-ligatures:normal;font-variant-caps:normal;font-variant-numeric:normal;font-variant-east-asian:normal;fill:#112b3a;fill-opacity:1;stroke-width:2.34113">20</tspan></text><text xml:space="preserve" style="font-style:normal;font-variant:normal;font-weight:700;font-stretch:normal;font-size:7.55587px;font-family:Asap;-inkscape-font-specification:'Asap, Bold';font-variant-ligatures:normal;font-variant-caps:normal;font-variant-numeric:normal;font-variant-east-asian:normal;text-align:center;letter-spacing:.302235px;writing-mode:lr-tb;direction:ltr;text-anchor:middle;fill:#112b3a;fill-opacity:1;stroke:none;stroke-width:2.34113;stroke-linecap:round" x="105.607" y="39.645"><tspan x="105.758" y="39.645" style="font-style:normal;font-variant:normal;font-weight:900;font-stretch:normal;font-size:6px;font-family:Montserrat;-inkscape-font-specification:'Montserrat, Heavy';font-variant-ligatures:normal;font-variant-caps:normal;font-variant-numeric:normal;font-variant-east-asian:normal;fill:#112b3a;fill-opacity:1;stroke-width:2.34113">24</tspan></text></g></svg>